<?xml version="1.0" standalone="no"?><!DOCTYPE svg PUBLIC "-//W3C//DTD SVG 1.1//EN" "http://www.w3.org/Graphics/SVG/1.1/DTD/svg11.dtd"><svg t="1737963435462" class="icon" viewBox="0 0 1024 1024" version="1.1" xmlns="http://www.w3.org/2000/svg" p-id="2781" xmlns:xlink="http://www.w3.org/1999/xlink" width="200" height="200"><path d="M0 0m384 0l256 0q384 0 384 384l0 256q0 384-384 384l-256 0q-384 0-384-384l0-256q0-384 384-384Z" fill="#41B49A" p-id="2782"></path><path d="M756.309333 484.565333l-41.728 291.669334a41.088 41.088 0 0 1-40.704 35.285333h-338.218666a41.088 41.088 0 0 1-40.704-35.285333l-41.728-291.669334z" fill="#FFFFFF" p-id="2783"></path><path d="M432 176.725333a149.802667 149.802667 0 0 1 79.530667 91.306667 134.698667 134.698667 0 0 1 88.96-60.885333c46.933333-4.565333 93.226667 31.530667 129.194666 70.186666a193.493333 193.493333 0 0 1-124.970666 49.066667 124.757333 124.757333 0 0 1-73.685334-32.981333v79.104a20.096 20.096 0 0 1-1.408 7.466666h226.986667a39.253333 39.253333 0 1 1 0 78.464h-504.064a39.253333 39.253333 0 0 1 0-78.464h238.336a20.48 20.48 0 0 1-1.408-7.466666v-78.72a20.010667 20.010667 0 0 1 0.597333-4.821334 151.082667 151.082667 0 0 1-99.925333 19.413334 217.6 217.6 0 0 1-123.733333-90.453334c52.096-32.725333 115.2-59.733333 165.76-41.173333z" fill="#B3E1D6" p-id="2784"></path></svg>